<?xml version="1.0" encoding="utf-8"?>
<!-- Generator: Adobe Illustrator 16.0.0, SVG Export Plug-In . SVG Version: 6.00 Build 0)  -->
<!DOCTYPE svg PUBLIC "-//W3C//DTD SVG 1.1//EN" "http://www.w3.org/Graphics/SVG/1.1/DTD/svg11.dtd">
<svg version="1.1" id="Layer_1" xmlns="http://www.w3.org/2000/svg" xmlns:xlink="http://www.w3.org/1999/xlink" x="0px" y="0px"
	 width="1000px" height="1000px" viewBox="0 0 1000 1000" enable-background="new 0 0 1000 1000" xml:space="preserve">
<path fill="none" d="M672.566,392.643c-35.746-60.632-99.746-102.055-186.32-102.055c-123.788,0-223.949,95.246-223.949,241
	s99.159,241.001,223.949,241.001c86.574,0,150.574-41.423,186.32-102.055"/>
<path fill="none" d="M672.566,304.761V711.5c0,41,40.768,75.261,96.819,75.261c88.802,0,187.894-118.928,187.894-255.173
	c0-254.879-206.621-461.5-461.501-461.5c-254.88,0-461.501,206.621-461.501,461.5c0,254.88,206.621,461.501,461.501,461.501
	c101.162,0,194.721-32.55,270.777-87.747"/>
</svg>
