<?xml version="1.0" encoding="utf-8"?>
<!-- Generator: Adobe Illustrator 16.0.0, SVG Export Plug-In . SVG Version: 6.00 Build 0)  -->
<!DOCTYPE svg PUBLIC "-//W3C//DTD SVG 1.1//EN" "http://www.w3.org/Graphics/SVG/1.1/DTD/svg11.dtd">
<svg version="1.1" id="Stroke" xmlns="http://www.w3.org/2000/svg" xmlns:xlink="http://www.w3.org/1999/xlink" x="0px" y="0px"
	 width="1000px" height="1000px" viewBox="0 0 1000 1000" enable-background="new 0 0 1000 1000" xml:space="preserve">
<g id="Layer_1">
	<g id="Layer_3" display="none">
		<path display="inline" d="M815.525,762.596l-275-702.5c-4.102-10.477-14.188-17.384-25.44-17.418c-0.028,0-0.057,0-0.086,0
			c-11.217,0-21.307,6.837-25.462,17.262l-279.999,702.5c-5.605,14.062,1.251,30.006,15.313,35.61
			c14.064,5.607,30.007-1.252,35.612-15.313L330.309,607.5h365.629l68.537,175.081c4.234,10.815,14.579,17.426,25.532,17.426
			c3.322,0,6.702-0.607,9.984-1.893C814.089,792.595,821.043,776.693,815.525,762.596z M352.159,552.677l162.61-407.979
			l159.707,407.979H352.159z"/>
	</g>
</g>
<path fill="none" d="M676.58,466.053c-6.667,37.587-41.667,71.583-81.02,71.583c-39.354,0-55.276-15.84-81.021-41.583
	c-25.744-25.745-41.667-41.585-81.02-41.585c-39.354,0-74.354,33.998-81.021,71.584"/>
</svg>
